<svg xmlns="http://www.w3.org/2000/svg" viewBox="0 0 760 340" width="760" height="340" role="img" aria-label="Weekday contribution share over the last 91 days — 819 total, peak Sun at 19.2%">
  <defs>
    <filter id="glow" x="-50%" y="-50%" width="200%" height="200%">
      <feGaussianBlur stdDeviation="5" result="b"/>
      <feMerge><feMergeNode in="b"/><feMergeNode in="SourceGraphic"/></feMerge>
    </filter>
  </defs>
  <style>
    .title { font: 600 15px ui-monospace, SFMono-Regular, Menlo, monospace; fill: #67e8f9; }
    .subtitle { font: 500 11px ui-monospace, SFMono-Regular, Menlo, monospace; fill: #8b949e; }
    .center-num { font: 700 34px ui-monospace, SFMono-Regular, Menlo, monospace; fill: #22d3ee; letter-spacing: -1px; }
    .center-sub { font: 500 12px ui-monospace, SFMono-Regular, Menlo, monospace; fill: #8b949e; }
    .legend-label { font: 500 13px ui-monospace, SFMono-Regular, Menlo, monospace; fill: #c9d1d9; }
    .legend-peak { font-weight: 700; fill: #22d3ee; }
    .legend-swatch { fill: #22d3ee; fill-opacity: 0.55; }
    .swatch-peak { fill-opacity: 1; }
    .slice-label { font: 700 12px ui-monospace, SFMono-Regular, Menlo, monospace; fill: #0b1f24; }
    .warning { font: 500 10px ui-monospace, SFMono-Regular, Menlo, monospace; fill: #fbbf24; }
    .slice { fill: #22d3ee; fill-opacity: 0.82; }
    .slice-peak { fill: #22d3ee; fill-opacity: 1; filter: url(#glow); }
    @media (prefers-color-scheme: light) {
      .title { fill: #0891b2; }
      .subtitle { fill: #57606a; }
      .center-num { fill: #0891b2; }
      .center-sub { fill: #57606a; }
      .legend-label { fill: #1f2328; }
      .legend-peak { fill: #0891b2; }
      .slice-label { fill: #ffffff; }
      .warning { fill: #b45309; }
      .slice { fill: #0891b2; }
      .slice-peak { fill: #0891b2; }
    }
    @media (prefers-reduced-motion: reduce) {
      animate, animateTransform { display: none; }
    }
  </style>
  <rect width="760" height="340" fill="transparent"/>
  <text x="40" y="36" class="title">Where the week goes</text>
  <text x="720" y="36" text-anchor="end" class="subtitle">share of 819 contributions · last 91 days</text>
  <g class="donut">
    
    <path d="M 189.66 60.01 A 132 132 0 0 1 289.52 107.63 L 254.14 137.03 A 86 86 0 0 0 189.08 106.01 Z" class="slice" style="transform-origin:188 192;opacity:1" transform="scale(1)"><title>Mon: 116 contributions · 14.2% of the last 91 days</title><animateTransform attributeName="transform" type="scale" values="0.82;1" begin="0.15s" dur="0.6s" fill="freeze" calcMode="spline" keyTimes="0;1" keySplines="0.2 0.8 0.2 1"/><animate attributeName="opacity" values="0;1" begin="0.15s" dur="0.6s" fill="freeze"/></path>
    <path d="M 291.60 110.21 A 132 132 0 0 1 308.99 244.77 L 266.83 226.38 A 86 86 0 0 0 255.50 138.71 Z" class="slice" style="transform-origin:188 192;opacity:1" transform="scale(1)"><title>Tue: 144 contributions · 17.6% of the last 91 days</title><animateTransform attributeName="transform" type="scale" values="0.82;1" begin="0.25s" dur="0.6s" fill="freeze" calcMode="spline" keyTimes="0;1" keySplines="0.2 0.8 0.2 1"/><animate attributeName="opacity" values="0;1" begin="0.25s" dur="0.6s" fill="freeze"/></path>
    <path d="M 307.63 247.80 A 132 132 0 0 1 225.10 318.68 L 212.17 274.53 A 86 86 0 0 0 265.94 228.35 Z" class="slice" style="transform-origin:188 192;opacity:1" transform="scale(1)"><title>Wed: 114 contributions · 13.9% of the last 91 days</title><animateTransform attributeName="transform" type="scale" values="0.82;1" begin="0.35s" dur="0.6s" fill="freeze" calcMode="spline" keyTimes="0;1" keySplines="0.2 0.8 0.2 1"/><animate attributeName="opacity" values="0;1" begin="0.35s" dur="0.6s" fill="freeze"/></path>
    <path d="M 221.91 319.57 A 132 132 0 0 1 150.20 318.47 L 163.37 274.40 A 86 86 0 0 0 210.09 275.11 Z" class="slice" style="transform-origin:188 192;opacity:1" transform="scale(1)"><title>Thu: 75 contributions · 9.2% of the last 91 days</title><animateTransform attributeName="transform" type="scale" values="0.82;1" begin="0.45s" dur="0.6s" fill="freeze" calcMode="spline" keyTimes="0;1" keySplines="0.2 0.8 0.2 1"/><animate attributeName="opacity" values="0;1" begin="0.45s" dur="0.6s" fill="freeze"/></path>
    <path d="M 147.03 317.48 A 132 132 0 0 1 88.79 279.07 L 123.36 248.73 A 86 86 0 0 0 161.31 273.75 Z" class="slice" style="transform-origin:188 192;opacity:1" transform="scale(1)"><title>Fri: 73 contributions · 8.9% of the last 91 days</title><animateTransform attributeName="transform" type="scale" values="0.82;1" begin="0.55s" dur="0.6s" fill="freeze" calcMode="spline" keyTimes="0;1" keySplines="0.2 0.8 0.2 1"/><animate attributeName="opacity" values="0;1" begin="0.55s" dur="0.6s" fill="freeze"/></path>
    <path d="M 86.63 276.55 A 132 132 0 0 1 64.17 146.27 L 107.33 162.21 A 86 86 0 0 0 121.96 247.08 Z" class="slice" style="transform-origin:188 192;opacity:1" transform="scale(1)"><title>Sat: 140 contributions · 17.1% of the last 91 days</title><animateTransform attributeName="transform" type="scale" values="0.82;1" begin="0.65s" dur="0.6s" fill="freeze" calcMode="spline" keyTimes="0;1" keySplines="0.2 0.8 0.2 1"/><animate attributeName="opacity" values="0;1" begin="0.65s" dur="0.6s" fill="freeze"/></path>
    <path d="M 65.36 143.17 A 132 132 0 0 1 186.34 60.01 L 186.92 106.01 A 86 86 0 0 0 108.10 160.19 Z" class="slice slice-peak" style="transform-origin:188 192;opacity:1" transform="scale(1)"><title>Sun: 157 contributions · 19.2% of the last 91 days</title><animate attributeName="opacity" values="1;0.68;1" dur="2.6s" begin="1.3s" repeatCount="indefinite"/><animateTransform attributeName="transform" type="scale" values="0.82;1" begin="0.75s" dur="0.6s" fill="freeze" calcMode="spline" keyTimes="0;1" keySplines="0.2 0.8 0.2 1"/></path>
    <text x="234.92" y="97.61" text-anchor="middle" class="slice-label">Mon</text>
    <text x="296.10" y="182.03" text-anchor="middle" class="slice-label">Tue</text>
    <text x="259.02" y="278.69" text-anchor="middle" class="slice-label">Wed</text>
    <text x="186.33" y="304.99" text-anchor="middle" class="slice-label">Thu</text>
    <text x="127.99" y="286.99" text-anchor="middle" class="slice-label">Fri</text>
    <text x="80.58" y="214.52" text-anchor="middle" class="slice-label">Sat</text>
    <text x="126.25" y="106.18" text-anchor="middle" class="slice-label">Sun</text>
    <text x="188" y="188" text-anchor="middle" class="center-num">819</text>
    <text x="188" y="210" text-anchor="middle" class="center-sub">91 days</text>
  </g>
  <g class="legend">
    <rect x="388" y="111" width="12" height="12" rx="2" class="legend-swatch"/>
      <text x="410" y="120" class="legend-label">Mon</text>
      <text x="584" y="120" text-anchor="end" class="legend-label">14.2%</text>
    <rect x="388" y="135" width="12" height="12" rx="2" class="legend-swatch"/>
      <text x="410" y="144" class="legend-label">Tue</text>
      <text x="584" y="144" text-anchor="end" class="legend-label">17.6%</text>
    <rect x="388" y="159" width="12" height="12" rx="2" class="legend-swatch"/>
      <text x="410" y="168" class="legend-label">Wed</text>
      <text x="584" y="168" text-anchor="end" class="legend-label">13.9%</text>
    <rect x="388" y="183" width="12" height="12" rx="2" class="legend-swatch"/>
      <text x="410" y="192" class="legend-label">Thu</text>
      <text x="584" y="192" text-anchor="end" class="legend-label">9.2%</text>
    <rect x="388" y="207" width="12" height="12" rx="2" class="legend-swatch"/>
      <text x="410" y="216" class="legend-label">Fri</text>
      <text x="584" y="216" text-anchor="end" class="legend-label">8.9%</text>
    <rect x="388" y="231" width="12" height="12" rx="2" class="legend-swatch"/>
      <text x="410" y="240" class="legend-label">Sat</text>
      <text x="584" y="240" text-anchor="end" class="legend-label">17.1%</text>
    <rect x="388" y="255" width="12" height="12" rx="2" class="legend-swatch swatch-peak"/>
      <text x="410" y="264" class="legend-label legend-peak">Sun</text>
      <text x="584" y="264" text-anchor="end" class="legend-label legend-peak">19.2%</text>
  </g>
  
</svg>