<svg xmlns="http://www.w3.org/2000/svg" viewBox="0 0 760 320" width="760" height="320" role="img" aria-label="Weekday contribution share over the last 91 days — 818 total, peak Sun at 19.2%">
  <defs>
    <filter id="glow" x="-50%" y="-50%" width="200%" height="200%">
      <feGaussianBlur stdDeviation="5" result="b"/>
      <feMerge><feMergeNode in="b"/><feMergeNode in="SourceGraphic"/></feMerge>
    </filter>
  </defs>
  <style>
    .title { font: 600 15px ui-monospace, SFMono-Regular, Menlo, monospace; fill: #67e8f9; }
    .subtitle { font: 500 11px ui-monospace, SFMono-Regular, Menlo, monospace; fill: #8b949e; }
    .center-num { font: 700 34px ui-monospace, SFMono-Regular, Menlo, monospace; fill: #22d3ee; letter-spacing: -1px; }
    .center-sub { font: 500 12px ui-monospace, SFMono-Regular, Menlo, monospace; fill: #8b949e; }
    .legend-label { font: 500 13px ui-monospace, SFMono-Regular, Menlo, monospace; fill: #c9d1d9; }
    .legend-peak { font-weight: 700; fill: #22d3ee; }
    .legend-swatch { fill: #22d3ee; fill-opacity: 0.55; }
    .swatch-peak { fill-opacity: 1; }
    .caption { font: 400 10px ui-monospace, SFMono-Regular, Menlo, monospace; fill: #6e7681; }
    .warning { font: 500 10px ui-monospace, SFMono-Regular, Menlo, monospace; fill: #fbbf24; }
    .slice { fill: #22d3ee; fill-opacity: 0.82; }
    .slice-peak { fill: #22d3ee; fill-opacity: 1; filter: url(#glow); }
    @media (prefers-color-scheme: light) {
      .title { fill: #0891b2; }
      .subtitle { fill: #57606a; }
      .center-num { fill: #0891b2; }
      .center-sub { fill: #57606a; }
      .legend-label { fill: #1f2328; }
      .legend-peak { fill: #0891b2; }
      .caption { fill: #6e7681; }
      .warning { fill: #b45309; }
      .slice { fill: #0891b2; }
      .slice-peak { fill: #0891b2; }
    }
    @media (prefers-reduced-motion: reduce) {
      animate, animateTransform { display: none; }
    }
  </style>
  <rect width="760" height="320" fill="transparent"/>
  <text x="40" y="36" class="title">Where the week goes</text>
  <text x="720" y="36" text-anchor="end" class="subtitle">share of 818 contributions · last 91 days</text>
  <g class="donut">
    
    <path d="M 189.66 44.01 A 132 132 0 0 1 289.61 91.74 L 254.20 121.10 A 86 86 0 0 0 189.08 90.01 Z" class="slice" style="transform-origin:188 176;opacity:1" transform="scale(1)"><title>Mon: 116 contributions · 14.2% of the last 91 days</title><animateTransform attributeName="transform" type="scale" values="0.82;1" begin="0.15s" dur="0.6s" fill="freeze" calcMode="spline" keyTimes="0;1" keySplines="0.2 0.8 0.2 1"/><animate attributeName="opacity" values="0;1" begin="0.15s" dur="0.6s" fill="freeze"/></path>
    <path d="M 291.69 94.32 A 132 132 0 0 1 308.86 229.07 L 266.74 210.57 A 86 86 0 0 0 255.56 122.78 Z" class="slice" style="transform-origin:188 176;opacity:1" transform="scale(1)"><title>Tue: 144 contributions · 17.6% of the last 91 days</title><animateTransform attributeName="transform" type="scale" values="0.82;1" begin="0.25s" dur="0.6s" fill="freeze" calcMode="spline" keyTimes="0;1" keySplines="0.2 0.8 0.2 1"/><animate attributeName="opacity" values="0;1" begin="0.25s" dur="0.6s" fill="freeze"/></path>
    <path d="M 307.49 232.09 A 132 132 0 0 1 224.66 302.81 L 211.88 258.62 A 86 86 0 0 0 265.85 212.54 Z" class="slice" style="transform-origin:188 176;opacity:1" transform="scale(1)"><title>Wed: 114 contributions · 13.9% of the last 91 days</title><animateTransform attributeName="transform" type="scale" values="0.82;1" begin="0.35s" dur="0.6s" fill="freeze" calcMode="spline" keyTimes="0;1" keySplines="0.2 0.8 0.2 1"/><animate attributeName="opacity" values="0;1" begin="0.35s" dur="0.6s" fill="freeze"/></path>
    <path d="M 221.46 303.69 A 132 132 0 0 1 149.66 302.31 L 163.02 258.29 A 86 86 0 0 0 209.80 259.19 Z" class="slice" style="transform-origin:188 176;opacity:1" transform="scale(1)"><title>Thu: 75 contributions · 9.2% of the last 91 days</title><animateTransform attributeName="transform" type="scale" values="0.82;1" begin="0.45s" dur="0.6s" fill="freeze" calcMode="spline" keyTimes="0;1" keySplines="0.2 0.8 0.2 1"/><animate attributeName="opacity" values="0;1" begin="0.45s" dur="0.6s" fill="freeze"/></path>
    <path d="M 146.50 301.31 A 132 132 0 0 1 89.03 263.34 L 123.52 232.91 A 86 86 0 0 0 160.96 257.64 Z" class="slice" style="transform-origin:188 176;opacity:1" transform="scale(1)"><title>Fri: 72 contributions · 8.8% of the last 91 days</title><animateTransform attributeName="transform" type="scale" values="0.82;1" begin="0.55s" dur="0.6s" fill="freeze" calcMode="spline" keyTimes="0;1" keySplines="0.2 0.8 0.2 1"/><animate attributeName="opacity" values="0;1" begin="0.55s" dur="0.6s" fill="freeze"/></path>
    <path d="M 86.87 260.83 A 132 132 0 0 1 64.11 130.45 L 107.28 146.33 A 86 86 0 0 0 122.11 231.27 Z" class="slice" style="transform-origin:188 176;opacity:1" transform="scale(1)"><title>Sat: 140 contributions · 17.1% of the last 91 days</title><animateTransform attributeName="transform" type="scale" values="0.82;1" begin="0.65s" dur="0.6s" fill="freeze" calcMode="spline" keyTimes="0;1" keySplines="0.2 0.8 0.2 1"/><animate attributeName="opacity" values="0;1" begin="0.65s" dur="0.6s" fill="freeze"/></path>
    <path d="M 65.29 127.35 A 132 132 0 0 1 186.34 44.01 L 186.92 90.01 A 86 86 0 0 0 108.05 144.31 Z" class="slice slice-peak" style="transform-origin:188 176;opacity:1" transform="scale(1)"><title>Sun: 157 contributions · 19.2% of the last 91 days</title><animate attributeName="opacity" values="1;0.68;1" dur="2.6s" begin="1.3s" repeatCount="indefinite"/><animateTransform attributeName="transform" type="scale" values="0.82;1" begin="0.75s" dur="0.6s" fill="freeze" calcMode="spline" keyTimes="0;1" keySplines="0.2 0.8 0.2 1"/></path>
    <text x="188" y="172" text-anchor="middle" class="center-num">818</text>
    <text x="188" y="194" text-anchor="middle" class="center-sub">91 days</text>
  </g>
  <g class="legend">
    <rect x="388" y="83" width="12" height="12" rx="2" class="legend-swatch"/>
      <text x="410" y="92" class="legend-label">Mon</text>
      <text x="584" y="92" text-anchor="end" class="legend-label">14.2%</text>
    <rect x="388" y="107" width="12" height="12" rx="2" class="legend-swatch"/>
      <text x="410" y="116" class="legend-label">Tue</text>
      <text x="584" y="116" text-anchor="end" class="legend-label">17.6%</text>
    <rect x="388" y="131" width="12" height="12" rx="2" class="legend-swatch"/>
      <text x="410" y="140" class="legend-label">Wed</text>
      <text x="584" y="140" text-anchor="end" class="legend-label">13.9%</text>
    <rect x="388" y="155" width="12" height="12" rx="2" class="legend-swatch"/>
      <text x="410" y="164" class="legend-label">Thu</text>
      <text x="584" y="164" text-anchor="end" class="legend-label">9.2%</text>
    <rect x="388" y="179" width="12" height="12" rx="2" class="legend-swatch"/>
      <text x="410" y="188" class="legend-label">Fri</text>
      <text x="584" y="188" text-anchor="end" class="legend-label">8.8%</text>
    <rect x="388" y="203" width="12" height="12" rx="2" class="legend-swatch"/>
      <text x="410" y="212" class="legend-label">Sat</text>
      <text x="584" y="212" text-anchor="end" class="legend-label">17.1%</text>
    <rect x="388" y="227" width="12" height="12" rx="2" class="legend-swatch swatch-peak"/>
      <text x="410" y="236" class="legend-label legend-peak">Sun</text>
      <text x="584" y="236" text-anchor="end" class="legend-label legend-peak">19.2%</text>
  </g>
  <text x="40" y="304" class="caption">each slice = a weekday's % share of the 91-day total · glowing slice = peak day · complements GitHub's native 365-day heatmap</text>
  
</svg>