<svg xmlns="http://www.w3.org/2000/svg" viewBox="0 0 760 340" width="760" height="340" role="img" aria-label="Weekday contribution share over the last 500 days — 3758 total, peak Sun at 16.6%">
  <defs>
    <filter id="glow" x="-50%" y="-50%" width="200%" height="200%">
      <feGaussianBlur stdDeviation="5" result="b"/>
      <feMerge><feMergeNode in="b"/><feMergeNode in="SourceGraphic"/></feMerge>
    </filter>
  </defs>
  <style>
    .title { font: 600 15px ui-monospace, SFMono-Regular, Menlo, monospace; fill: #67e8f9; }
    .subtitle { font: 500 11px ui-monospace, SFMono-Regular, Menlo, monospace; fill: #8b949e; }
    .center-num { font: 700 32px ui-monospace, SFMono-Regular, Menlo, monospace; fill: #22d3ee; letter-spacing: -1px; }
    .center-sub { font: 500 11px ui-monospace, SFMono-Regular, Menlo, monospace; fill: #8b949e; }
    .center-streak { font: 700 12px ui-monospace, SFMono-Regular, Menlo, monospace; fill: #fbbf24; }
    .legend-label { font: 500 13px ui-monospace, SFMono-Regular, Menlo, monospace; fill: #c9d1d9; }
    .legend-peak { font-weight: 700; fill: #22d3ee; }
    .legend-swatch { fill: #22d3ee; fill-opacity: 0.55; }
    .swatch-peak { fill-opacity: 1; }
    .slice-label { font: 700 12px ui-monospace, SFMono-Regular, Menlo, monospace; fill: #0b1f24; }
    .warning { font: 500 10px ui-monospace, SFMono-Regular, Menlo, monospace; fill: #fbbf24; }
    .slice { fill: #22d3ee; fill-opacity: 0.82; }
    .slice-peak { fill: #22d3ee; fill-opacity: 1; filter: url(#glow); }
    @media (prefers-color-scheme: light) {
      .title { fill: #0891b2; }
      .subtitle { fill: #57606a; }
      .center-num { fill: #0891b2; }
      .center-sub { fill: #57606a; }
      .center-streak { fill: #b45309; }
      .legend-label { fill: #1f2328; }
      .legend-peak { fill: #0891b2; }
      .slice-label { fill: #ffffff; }
      .warning { fill: #b45309; }
      .slice { fill: #0891b2; }
      .slice-peak { fill: #0891b2; }
    }
    @media (prefers-reduced-motion: reduce) {
      animate, animateTransform { display: none; }
    }
  </style>
  <rect width="760" height="340" fill="transparent"/>
  <text x="40" y="36" class="title">Where the week goes</text>
  <text x="720" y="36" text-anchor="end" class="subtitle">share of 3758 contributions · last 500 days</text>
  <g class="donut">
    
    <path d="M 189.66 60.01 A 132 132 0 0 1 300.76 123.37 L 261.46 147.29 A 86 86 0 0 0 189.08 106.01 Z" class="slice" style="transform-origin:188 192;opacity:1" transform="scale(1)"><title>Mon: 620 contributions · 16.5% of the last 500 days</title><animateTransform attributeName="transform" type="scale" values="0.82;1" begin="0.15s" dur="0.6s" fill="freeze" calcMode="spline" keyTimes="0;1" keySplines="0.2 0.8 0.2 1"/><animate attributeName="opacity" values="0;1" begin="0.15s" dur="0.6s" fill="freeze"/></path>
    <path d="M 302.45 126.23 A 132 132 0 0 1 307.16 248.79 L 265.64 229.00 A 86 86 0 0 0 262.56 149.15 Z" class="slice" style="transform-origin:188 192;opacity:1" transform="scale(1)"><title>Tue: 593 contributions · 15.8% of the last 500 days</title><animateTransform attributeName="transform" type="scale" values="0.82;1" begin="0.25s" dur="0.6s" fill="freeze" calcMode="spline" keyTimes="0;1" keySplines="0.2 0.8 0.2 1"/><animate attributeName="opacity" values="0;1" begin="0.25s" dur="0.6s" fill="freeze"/></path>
    <path d="M 305.70 251.76 A 132 132 0 0 1 221.94 319.56 L 210.11 275.11 A 86 86 0 0 0 264.68 230.94 Z" class="slice" style="transform-origin:188 192;opacity:1" transform="scale(1)"><title>Wed: 518 contributions · 13.8% of the last 500 days</title><animateTransform attributeName="transform" type="scale" values="0.82;1" begin="0.35s" dur="0.6s" fill="freeze" calcMode="spline" keyTimes="0;1" keySplines="0.2 0.8 0.2 1"/><animate attributeName="opacity" values="0;1" begin="0.35s" dur="0.6s" fill="freeze"/></path>
    <path d="M 218.72 320.38 A 132 132 0 0 1 119.09 304.59 L 143.11 265.35 A 86 86 0 0 0 208.01 275.64 Z" class="slice" style="transform-origin:188 192;opacity:1" transform="scale(1)"><title>Thu: 484 contributions · 12.9% of the last 500 days</title><animateTransform attributeName="transform" type="scale" values="0.82;1" begin="0.45s" dur="0.6s" fill="freeze" calcMode="spline" keyTimes="0;1" keySplines="0.2 0.8 0.2 1"/><animate attributeName="opacity" values="0;1" begin="0.45s" dur="0.6s" fill="freeze"/></path>
    <path d="M 116.29 302.82 A 132 132 0 0 1 60.35 225.62 L 104.84 213.90 A 86 86 0 0 0 141.28 264.20 Z" class="slice" style="transform-origin:188 192;opacity:1" transform="scale(1)"><title>Fri: 457 contributions · 12.2% of the last 500 days</title><animateTransform attributeName="transform" type="scale" values="0.82;1" begin="0.55s" dur="0.6s" fill="freeze" calcMode="spline" keyTimes="0;1" keySplines="0.2 0.8 0.2 1"/><animate attributeName="opacity" values="0;1" begin="0.55s" dur="0.6s" fill="freeze"/></path>
    <path d="M 59.55 222.40 A 132 132 0 0 1 73.12 126.99 L 113.15 149.65 A 86 86 0 0 0 104.31 211.80 Z" class="slice" style="transform-origin:188 192;opacity:1" transform="scale(1)"><title>Sat: 462 contributions · 12.3% of the last 500 days</title><animateTransform attributeName="transform" type="scale" values="0.82;1" begin="0.65s" dur="0.6s" fill="freeze" calcMode="spline" keyTimes="0;1" keySplines="0.2 0.8 0.2 1"/><animate attributeName="opacity" values="0;1" begin="0.65s" dur="0.6s" fill="freeze"/></path>
    <path d="M 74.79 124.13 A 132 132 0 0 1 186.34 60.01 L 186.92 106.01 A 86 86 0 0 0 114.24 147.78 Z" class="slice slice-peak" style="transform-origin:188 192;opacity:1" transform="scale(1)"><title>Sun: 624 contributions · 16.6% of the last 500 days</title><animate attributeName="opacity" values="1;0.68;1" dur="2.6s" begin="1.3s" repeatCount="indefinite"/><animateTransform attributeName="transform" type="scale" values="0.82;1" begin="0.75s" dur="0.6s" fill="freeze" calcMode="spline" keyTimes="0;1" keySplines="0.2 0.8 0.2 1"/></path>
    <text x="242.00" y="101.32" text-anchor="middle" class="slice-label">Mon</text>
    <text x="296.92" y="191.81" text-anchor="middle" class="slice-label">Tue</text>
    <text x="256.58" y="280.72" text-anchor="middle" class="slice-label">Wed</text>
    <text x="170.94" y="303.66" text-anchor="middle" class="slice-label">Thu</text>
    <text x="99.73" y="259.95" text-anchor="middle" class="slice-label">Fri</text>
    <text x="80.09" y="180.65" text-anchor="middle" class="slice-label">Sat</text>
    <text x="133.68" y="101.50" text-anchor="middle" class="slice-label">Sun</text>
    <text x="188" y="178" text-anchor="middle" class="center-num">3758</text>
    <text x="188" y="200" text-anchor="middle" class="center-sub">500 days</text>
    <text x="188" y="232" text-anchor="middle" class="center-streak">18-day streak</text>
  </g>
  <g class="legend">
    <rect x="388" y="111" width="12" height="12" rx="2" class="legend-swatch"/>
      <text x="410" y="120" class="legend-label">Mon</text>
      <text x="584" y="120" text-anchor="end" class="legend-label">16.5%</text>
    <rect x="388" y="135" width="12" height="12" rx="2" class="legend-swatch"/>
      <text x="410" y="144" class="legend-label">Tue</text>
      <text x="584" y="144" text-anchor="end" class="legend-label">15.8%</text>
    <rect x="388" y="159" width="12" height="12" rx="2" class="legend-swatch"/>
      <text x="410" y="168" class="legend-label">Wed</text>
      <text x="584" y="168" text-anchor="end" class="legend-label">13.8%</text>
    <rect x="388" y="183" width="12" height="12" rx="2" class="legend-swatch"/>
      <text x="410" y="192" class="legend-label">Thu</text>
      <text x="584" y="192" text-anchor="end" class="legend-label">12.9%</text>
    <rect x="388" y="207" width="12" height="12" rx="2" class="legend-swatch"/>
      <text x="410" y="216" class="legend-label">Fri</text>
      <text x="584" y="216" text-anchor="end" class="legend-label">12.2%</text>
    <rect x="388" y="231" width="12" height="12" rx="2" class="legend-swatch"/>
      <text x="410" y="240" class="legend-label">Sat</text>
      <text x="584" y="240" text-anchor="end" class="legend-label">12.3%</text>
    <rect x="388" y="255" width="12" height="12" rx="2" class="legend-swatch swatch-peak"/>
      <text x="410" y="264" class="legend-label legend-peak">Sun</text>
      <text x="584" y="264" text-anchor="end" class="legend-label legend-peak">16.6%</text>
  </g>
  
</svg>