<svg xmlns="http://www.w3.org/2000/svg" viewBox="0 0 760 340" width="760" height="340" role="img" aria-label="Weekday contribution share over the last 500 days — 3740 total, peak Sun at 16.7%">
  <defs>
    <filter id="glow" x="-50%" y="-50%" width="200%" height="200%">
      <feGaussianBlur stdDeviation="5" result="b"/>
      <feMerge><feMergeNode in="b"/><feMergeNode in="SourceGraphic"/></feMerge>
    </filter>
  </defs>
  <style>
    .title { font: 600 15px ui-monospace, SFMono-Regular, Menlo, monospace; fill: #67e8f9; }
    .subtitle { font: 500 11px ui-monospace, SFMono-Regular, Menlo, monospace; fill: #8b949e; }
    .center-num { font: 700 34px ui-monospace, SFMono-Regular, Menlo, monospace; fill: #22d3ee; letter-spacing: -1px; }
    .center-sub { font: 500 12px ui-monospace, SFMono-Regular, Menlo, monospace; fill: #8b949e; }
    .legend-label { font: 500 13px ui-monospace, SFMono-Regular, Menlo, monospace; fill: #c9d1d9; }
    .legend-peak { font-weight: 700; fill: #22d3ee; }
    .legend-swatch { fill: #22d3ee; fill-opacity: 0.55; }
    .swatch-peak { fill-opacity: 1; }
    .slice-label { font: 700 12px ui-monospace, SFMono-Regular, Menlo, monospace; fill: #0b1f24; }
    .warning { font: 500 10px ui-monospace, SFMono-Regular, Menlo, monospace; fill: #fbbf24; }
    .slice { fill: #22d3ee; fill-opacity: 0.82; }
    .slice-peak { fill: #22d3ee; fill-opacity: 1; filter: url(#glow); }
    @media (prefers-color-scheme: light) {
      .title { fill: #0891b2; }
      .subtitle { fill: #57606a; }
      .center-num { fill: #0891b2; }
      .center-sub { fill: #57606a; }
      .legend-label { fill: #1f2328; }
      .legend-peak { fill: #0891b2; }
      .slice-label { fill: #ffffff; }
      .warning { fill: #b45309; }
      .slice { fill: #0891b2; }
      .slice-peak { fill: #0891b2; }
    }
    @media (prefers-reduced-motion: reduce) {
      animate, animateTransform { display: none; }
    }
  </style>
  <rect width="760" height="340" fill="transparent"/>
  <text x="40" y="36" class="title">Where the week goes</text>
  <text x="720" y="36" text-anchor="end" class="subtitle">share of 3740 contributions · last 500 days</text>
  <g class="donut">
    
    <path d="M 189.66 60.01 A 132 132 0 0 1 301.10 123.93 L 261.68 147.65 A 86 86 0 0 0 189.08 106.01 Z" class="slice" style="transform-origin:188 192;opacity:1" transform="scale(1)"><title>Mon: 620 contributions · 16.6% of the last 500 days</title><animateTransform attributeName="transform" type="scale" values="0.82;1" begin="0.15s" dur="0.6s" fill="freeze" calcMode="spline" keyTimes="0;1" keySplines="0.2 0.8 0.2 1"/><animate attributeName="opacity" values="0;1" begin="0.15s" dur="0.6s" fill="freeze"/></path>
    <path d="M 302.77 126.80 A 132 132 0 0 1 306.60 249.95 L 265.27 229.75 A 86 86 0 0 0 262.78 149.52 Z" class="slice" style="transform-origin:188 192;opacity:1" transform="scale(1)"><title>Tue: 593 contributions · 15.9% of the last 500 days</title><animateTransform attributeName="transform" type="scale" values="0.82;1" begin="0.25s" dur="0.6s" fill="freeze" calcMode="spline" keyTimes="0;1" keySplines="0.2 0.8 0.2 1"/><animate attributeName="opacity" values="0;1" begin="0.25s" dur="0.6s" fill="freeze"/></path>
    <path d="M 305.11 252.91 A 132 132 0 0 1 220.16 320.02 L 208.95 275.41 A 86 86 0 0 0 264.30 231.68 Z" class="slice" style="transform-origin:188 192;opacity:1" transform="scale(1)"><title>Wed: 518 contributions · 13.9% of the last 500 days</title><animateTransform attributeName="transform" type="scale" values="0.82;1" begin="0.35s" dur="0.6s" fill="freeze" calcMode="spline" keyTimes="0;1" keySplines="0.2 0.8 0.2 1"/><animate attributeName="opacity" values="0;1" begin="0.35s" dur="0.6s" fill="freeze"/></path>
    <path d="M 216.93 320.79 A 132 132 0 0 1 117.10 303.34 L 141.81 264.54 A 86 86 0 0 0 206.85 275.91 Z" class="slice" style="transform-origin:188 192;opacity:1" transform="scale(1)"><title>Thu: 484 contributions · 12.9% of the last 500 days</title><animateTransform attributeName="transform" type="scale" values="0.82;1" begin="0.45s" dur="0.6s" fill="freeze" calcMode="spline" keyTimes="0;1" keySplines="0.2 0.8 0.2 1"/><animate attributeName="opacity" values="0;1" begin="0.45s" dur="0.6s" fill="freeze"/></path>
    <path d="M 114.32 301.52 A 132 132 0 0 1 60.20 225.02 L 104.73 213.51 A 86 86 0 0 0 140.00 263.36 Z" class="slice" style="transform-origin:188 192;opacity:1" transform="scale(1)"><title>Fri: 447 contributions · 12.0% of the last 500 days</title><animateTransform attributeName="transform" type="scale" values="0.82;1" begin="0.55s" dur="0.6s" fill="freeze" calcMode="spline" keyTimes="0;1" keySplines="0.2 0.8 0.2 1"/><animate attributeName="opacity" values="0;1" begin="0.55s" dur="0.6s" fill="freeze"/></path>
    <path d="M 59.41 221.79 A 132 132 0 0 1 72.79 127.57 L 112.94 150.02 A 86 86 0 0 0 104.22 211.41 Z" class="slice" style="transform-origin:188 192;opacity:1" transform="scale(1)"><title>Sat: 454 contributions · 12.1% of the last 500 days</title><animateTransform attributeName="transform" type="scale" values="0.82;1" begin="0.65s" dur="0.6s" fill="freeze" calcMode="spline" keyTimes="0;1" keySplines="0.2 0.8 0.2 1"/><animate attributeName="opacity" values="0;1" begin="0.65s" dur="0.6s" fill="freeze"/></path>
    <path d="M 74.45 124.70 A 132 132 0 0 1 186.34 60.01 L 186.92 106.01 A 86 86 0 0 0 114.02 148.15 Z" class="slice slice-peak" style="transform-origin:188 192;opacity:1" transform="scale(1)"><title>Sun: 624 contributions · 16.7% of the last 500 days</title><animate attributeName="opacity" values="1;0.68;1" dur="2.6s" begin="1.3s" repeatCount="indefinite"/><animateTransform attributeName="transform" type="scale" values="0.82;1" begin="0.75s" dur="0.6s" fill="freeze" calcMode="spline" keyTimes="0;1" keySplines="0.2 0.8 0.2 1"/></path>
    <text x="242.24" y="101.45" text-anchor="middle" class="slice-label">Mon</text>
    <text x="296.95" y="192.61" text-anchor="middle" class="slice-label">Tue</text>
    <text x="255.57" y="281.53" text-anchor="middle" class="slice-label">Wed</text>
    <text x="169.23" y="303.37" text-anchor="middle" class="slice-label">Thu</text>
    <text x="99.02" y="258.95" text-anchor="middle" class="slice-label">Fri</text>
    <text x="80.08" y="180.67" text-anchor="middle" class="slice-label">Sat</text>
    <text x="133.45" y="101.63" text-anchor="middle" class="slice-label">Sun</text>
    <text x="188" y="188" text-anchor="middle" class="center-num">3740</text>
    <text x="188" y="210" text-anchor="middle" class="center-sub">500 days</text>
  </g>
  <g class="legend">
    <rect x="388" y="111" width="12" height="12" rx="2" class="legend-swatch"/>
      <text x="410" y="120" class="legend-label">Mon</text>
      <text x="584" y="120" text-anchor="end" class="legend-label">16.6%</text>
    <rect x="388" y="135" width="12" height="12" rx="2" class="legend-swatch"/>
      <text x="410" y="144" class="legend-label">Tue</text>
      <text x="584" y="144" text-anchor="end" class="legend-label">15.9%</text>
    <rect x="388" y="159" width="12" height="12" rx="2" class="legend-swatch"/>
      <text x="410" y="168" class="legend-label">Wed</text>
      <text x="584" y="168" text-anchor="end" class="legend-label">13.9%</text>
    <rect x="388" y="183" width="12" height="12" rx="2" class="legend-swatch"/>
      <text x="410" y="192" class="legend-label">Thu</text>
      <text x="584" y="192" text-anchor="end" class="legend-label">12.9%</text>
    <rect x="388" y="207" width="12" height="12" rx="2" class="legend-swatch"/>
      <text x="410" y="216" class="legend-label">Fri</text>
      <text x="584" y="216" text-anchor="end" class="legend-label">12.0%</text>
    <rect x="388" y="231" width="12" height="12" rx="2" class="legend-swatch"/>
      <text x="410" y="240" class="legend-label">Sat</text>
      <text x="584" y="240" text-anchor="end" class="legend-label">12.1%</text>
    <rect x="388" y="255" width="12" height="12" rx="2" class="legend-swatch swatch-peak"/>
      <text x="410" y="264" class="legend-label legend-peak">Sun</text>
      <text x="584" y="264" text-anchor="end" class="legend-label legend-peak">16.7%</text>
  </g>
  
</svg>