<svg xmlns="http://www.w3.org/2000/svg" viewBox="0 0 760 320" width="760" height="320" role="img" aria-label="Weekday contribution share over the last 91 days — 819 total, peak Sun at 19.2%">
  <defs>
    <filter id="glow" x="-50%" y="-50%" width="200%" height="200%">
      <feGaussianBlur stdDeviation="5" result="b"/>
      <feMerge><feMergeNode in="b"/><feMergeNode in="SourceGraphic"/></feMerge>
    </filter>
  </defs>
  <style>
    .title { font: 600 15px ui-monospace, SFMono-Regular, Menlo, monospace; fill: #67e8f9; }
    .subtitle { font: 500 11px ui-monospace, SFMono-Regular, Menlo, monospace; fill: #8b949e; }
    .center-num { font: 700 34px ui-monospace, SFMono-Regular, Menlo, monospace; fill: #22d3ee; letter-spacing: -1px; }
    .center-sub { font: 500 12px ui-monospace, SFMono-Regular, Menlo, monospace; fill: #8b949e; }
    .legend-label { font: 500 13px ui-monospace, SFMono-Regular, Menlo, monospace; fill: #c9d1d9; }
    .legend-peak { font-weight: 700; fill: #22d3ee; }
    .legend-swatch { fill: #22d3ee; fill-opacity: 0.55; }
    .swatch-peak { fill-opacity: 1; }
    .slice-label { font: 700 12px ui-monospace, SFMono-Regular, Menlo, monospace; fill: #0b1f24; }
    .warning { font: 500 10px ui-monospace, SFMono-Regular, Menlo, monospace; fill: #fbbf24; }
    .slice { fill: #22d3ee; fill-opacity: 0.82; }
    .slice-peak { fill: #22d3ee; fill-opacity: 1; filter: url(#glow); }
    @media (prefers-color-scheme: light) {
      .title { fill: #0891b2; }
      .subtitle { fill: #57606a; }
      .center-num { fill: #0891b2; }
      .center-sub { fill: #57606a; }
      .legend-label { fill: #1f2328; }
      .legend-peak { fill: #0891b2; }
      .slice-label { fill: #ffffff; }
      .warning { fill: #b45309; }
      .slice { fill: #0891b2; }
      .slice-peak { fill: #0891b2; }
    }
    @media (prefers-reduced-motion: reduce) {
      animate, animateTransform { display: none; }
    }
  </style>
  <rect width="760" height="320" fill="transparent"/>
  <text x="40" y="36" class="title">Where the week goes</text>
  <text x="720" y="36" text-anchor="end" class="subtitle">share of 819 contributions · last 91 days</text>
  <g class="donut">
    
    <path d="M 189.66 44.01 A 132 132 0 0 1 289.52 91.63 L 254.14 121.03 A 86 86 0 0 0 189.08 90.01 Z" class="slice" style="transform-origin:188 176;opacity:1" transform="scale(1)"><title>Mon: 116 contributions · 14.2% of the last 91 days</title><animateTransform attributeName="transform" type="scale" values="0.82;1" begin="0.15s" dur="0.6s" fill="freeze" calcMode="spline" keyTimes="0;1" keySplines="0.2 0.8 0.2 1"/><animate attributeName="opacity" values="0;1" begin="0.15s" dur="0.6s" fill="freeze"/></path>
    <path d="M 291.60 94.21 A 132 132 0 0 1 308.99 228.77 L 266.83 210.38 A 86 86 0 0 0 255.50 122.71 Z" class="slice" style="transform-origin:188 176;opacity:1" transform="scale(1)"><title>Tue: 144 contributions · 17.6% of the last 91 days</title><animateTransform attributeName="transform" type="scale" values="0.82;1" begin="0.25s" dur="0.6s" fill="freeze" calcMode="spline" keyTimes="0;1" keySplines="0.2 0.8 0.2 1"/><animate attributeName="opacity" values="0;1" begin="0.25s" dur="0.6s" fill="freeze"/></path>
    <path d="M 307.63 231.80 A 132 132 0 0 1 225.10 302.68 L 212.17 258.53 A 86 86 0 0 0 265.94 212.35 Z" class="slice" style="transform-origin:188 176;opacity:1" transform="scale(1)"><title>Wed: 114 contributions · 13.9% of the last 91 days</title><animateTransform attributeName="transform" type="scale" values="0.82;1" begin="0.35s" dur="0.6s" fill="freeze" calcMode="spline" keyTimes="0;1" keySplines="0.2 0.8 0.2 1"/><animate attributeName="opacity" values="0;1" begin="0.35s" dur="0.6s" fill="freeze"/></path>
    <path d="M 221.91 303.57 A 132 132 0 0 1 150.20 302.47 L 163.37 258.40 A 86 86 0 0 0 210.09 259.11 Z" class="slice" style="transform-origin:188 176;opacity:1" transform="scale(1)"><title>Thu: 75 contributions · 9.2% of the last 91 days</title><animateTransform attributeName="transform" type="scale" values="0.82;1" begin="0.45s" dur="0.6s" fill="freeze" calcMode="spline" keyTimes="0;1" keySplines="0.2 0.8 0.2 1"/><animate attributeName="opacity" values="0;1" begin="0.45s" dur="0.6s" fill="freeze"/></path>
    <path d="M 147.03 301.48 A 132 132 0 0 1 88.79 263.07 L 123.36 232.73 A 86 86 0 0 0 161.31 257.75 Z" class="slice" style="transform-origin:188 176;opacity:1" transform="scale(1)"><title>Fri: 73 contributions · 8.9% of the last 91 days</title><animateTransform attributeName="transform" type="scale" values="0.82;1" begin="0.55s" dur="0.6s" fill="freeze" calcMode="spline" keyTimes="0;1" keySplines="0.2 0.8 0.2 1"/><animate attributeName="opacity" values="0;1" begin="0.55s" dur="0.6s" fill="freeze"/></path>
    <path d="M 86.63 260.55 A 132 132 0 0 1 64.17 130.27 L 107.33 146.21 A 86 86 0 0 0 121.96 231.08 Z" class="slice" style="transform-origin:188 176;opacity:1" transform="scale(1)"><title>Sat: 140 contributions · 17.1% of the last 91 days</title><animateTransform attributeName="transform" type="scale" values="0.82;1" begin="0.65s" dur="0.6s" fill="freeze" calcMode="spline" keyTimes="0;1" keySplines="0.2 0.8 0.2 1"/><animate attributeName="opacity" values="0;1" begin="0.65s" dur="0.6s" fill="freeze"/></path>
    <path d="M 65.36 127.17 A 132 132 0 0 1 186.34 44.01 L 186.92 90.01 A 86 86 0 0 0 108.10 144.19 Z" class="slice slice-peak" style="transform-origin:188 176;opacity:1" transform="scale(1)"><title>Sun: 157 contributions · 19.2% of the last 91 days</title><animate attributeName="opacity" values="1;0.68;1" dur="2.6s" begin="1.3s" repeatCount="indefinite"/><animateTransform attributeName="transform" type="scale" values="0.82;1" begin="0.75s" dur="0.6s" fill="freeze" calcMode="spline" keyTimes="0;1" keySplines="0.2 0.8 0.2 1"/></path>
    <text x="234.92" y="81.61" text-anchor="middle" class="slice-label">Mon</text>
    <text x="296.10" y="166.03" text-anchor="middle" class="slice-label">Tue</text>
    <text x="259.02" y="262.69" text-anchor="middle" class="slice-label">Wed</text>
    <text x="186.33" y="288.99" text-anchor="middle" class="slice-label">Thu</text>
    <text x="127.99" y="270.99" text-anchor="middle" class="slice-label">Fri</text>
    <text x="80.58" y="198.52" text-anchor="middle" class="slice-label">Sat</text>
    <text x="126.25" y="90.18" text-anchor="middle" class="slice-label">Sun</text>
    <text x="188" y="172" text-anchor="middle" class="center-num">819</text>
    <text x="188" y="194" text-anchor="middle" class="center-sub">91 days</text>
  </g>
  <g class="legend">
    <rect x="388" y="83" width="12" height="12" rx="2" class="legend-swatch"/>
      <text x="410" y="92" class="legend-label">Mon</text>
      <text x="584" y="92" text-anchor="end" class="legend-label">14.2%</text>
    <rect x="388" y="107" width="12" height="12" rx="2" class="legend-swatch"/>
      <text x="410" y="116" class="legend-label">Tue</text>
      <text x="584" y="116" text-anchor="end" class="legend-label">17.6%</text>
    <rect x="388" y="131" width="12" height="12" rx="2" class="legend-swatch"/>
      <text x="410" y="140" class="legend-label">Wed</text>
      <text x="584" y="140" text-anchor="end" class="legend-label">13.9%</text>
    <rect x="388" y="155" width="12" height="12" rx="2" class="legend-swatch"/>
      <text x="410" y="164" class="legend-label">Thu</text>
      <text x="584" y="164" text-anchor="end" class="legend-label">9.2%</text>
    <rect x="388" y="179" width="12" height="12" rx="2" class="legend-swatch"/>
      <text x="410" y="188" class="legend-label">Fri</text>
      <text x="584" y="188" text-anchor="end" class="legend-label">8.9%</text>
    <rect x="388" y="203" width="12" height="12" rx="2" class="legend-swatch"/>
      <text x="410" y="212" class="legend-label">Sat</text>
      <text x="584" y="212" text-anchor="end" class="legend-label">17.1%</text>
    <rect x="388" y="227" width="12" height="12" rx="2" class="legend-swatch swatch-peak"/>
      <text x="410" y="236" class="legend-label legend-peak">Sun</text>
      <text x="584" y="236" text-anchor="end" class="legend-label legend-peak">19.2%</text>
  </g>
  
</svg>