<svg xmlns="http://www.w3.org/2000/svg" viewBox="0 0 760 340" width="760" height="340" role="img" aria-label="Weekday contribution share over the last 500 days — 4583 total, peak Sun at 16.8%">
  <defs>
    <filter id="glow" x="-50%" y="-50%" width="200%" height="200%">
      <feGaussianBlur stdDeviation="5" result="b"/>
      <feMerge><feMergeNode in="b"/><feMergeNode in="SourceGraphic"/></feMerge>
    </filter>
  </defs>
  <style>
    .title { font: 600 15px ui-monospace, SFMono-Regular, Menlo, monospace; fill: #67e8f9; }
    .subtitle { font: 500 11px ui-monospace, SFMono-Regular, Menlo, monospace; fill: #8b949e; }
    .center-num { font: 700 32px ui-monospace, SFMono-Regular, Menlo, monospace; fill: #22d3ee; letter-spacing: -1px; }
    .center-sub { font: 500 11px ui-monospace, SFMono-Regular, Menlo, monospace; fill: #8b949e; }
    .center-streak { font: 700 12px ui-monospace, SFMono-Regular, Menlo, monospace; fill: #fbbf24; }
    .legend-label { font: 500 13px ui-monospace, SFMono-Regular, Menlo, monospace; fill: #c9d1d9; }
    .legend-peak { font-weight: 700; fill: #22d3ee; }
    .legend-swatch { fill: #22d3ee; fill-opacity: 0.55; }
    .swatch-peak { fill-opacity: 1; }
    .slice-label { font: 700 12px ui-monospace, SFMono-Regular, Menlo, monospace; fill: #0b1f24; }
    .warning { font: 500 10px ui-monospace, SFMono-Regular, Menlo, monospace; fill: #fbbf24; }
    .slice { fill: #22d3ee; fill-opacity: 0.82; }
    .slice-peak { fill: #22d3ee; fill-opacity: 1; filter: url(#glow); }
    @media (prefers-color-scheme: light) {
      .title { fill: #0891b2; }
      .subtitle { fill: #57606a; }
      .center-num { fill: #0891b2; }
      .center-sub { fill: #57606a; }
      .center-streak { fill: #b45309; }
      .legend-label { fill: #1f2328; }
      .legend-peak { fill: #0891b2; }
      .slice-label { fill: #ffffff; }
      .warning { fill: #b45309; }
      .slice { fill: #0891b2; }
      .slice-peak { fill: #0891b2; }
    }
    @media (prefers-reduced-motion: reduce) {
      animate, animateTransform { display: none; }
    }
  </style>
  <rect width="760" height="340" fill="transparent"/>
  <text x="40" y="36" class="title">Where the week goes</text>
  <text x="720" y="36" text-anchor="end" class="subtitle">4,583 public · last 500 days</text>
  <g class="donut">
    
    <path d="M 189.66 60.01 A 132 132 0 0 1 294.62 114.18 L 257.46 141.30 A 86 86 0 0 0 189.08 106.01 Z" class="slice" style="transform-origin:188 192;opacity:1" transform="scale(1)"><title>Mon: 695 contributions · 15.2% of the last 500 days</title><animateTransform attributeName="transform" type="scale" values="0.82;1" begin="0.15s" dur="0.6s" fill="freeze" calcMode="spline" keyTimes="0;1" keySplines="0.2 0.8 0.2 1"/><animate attributeName="opacity" values="0;1" begin="0.15s" dur="0.6s" fill="freeze"/></path>
    <path d="M 296.54 116.88 A 132 132 0 0 1 310.25 241.79 L 267.65 224.44 A 86 86 0 0 0 258.72 143.06 Z" class="slice" style="transform-origin:188 192;opacity:1" transform="scale(1)"><title>Tue: 742 contributions · 16.2% of the last 500 days</title><animateTransform attributeName="transform" type="scale" values="0.82;1" begin="0.25s" dur="0.6s" fill="freeze" calcMode="spline" keyTimes="0;1" keySplines="0.2 0.8 0.2 1"/><animate attributeName="opacity" values="0;1" begin="0.25s" dur="0.6s" fill="freeze"/></path>
    <path d="M 308.96 244.84 A 132 132 0 0 1 234.85 315.41 L 218.52 272.40 A 86 86 0 0 0 266.81 226.43 Z" class="slice" style="transform-origin:188 192;opacity:1" transform="scale(1)"><title>Wed: 599 contributions · 13.1% of the last 500 days</title><animateTransform attributeName="transform" type="scale" values="0.82;1" begin="0.35s" dur="0.6s" fill="freeze" calcMode="spline" keyTimes="0;1" keySplines="0.2 0.8 0.2 1"/><animate attributeName="opacity" values="0;1" begin="0.35s" dur="0.6s" fill="freeze"/></path>
    <path d="M 231.74 316.54 A 132 132 0 0 1 136.17 313.40 L 154.23 271.09 A 86 86 0 0 0 216.49 273.14 Z" class="slice" style="transform-origin:188 192;opacity:1" transform="scale(1)"><title>Thu: 559 contributions · 12.2% of the last 500 days</title><animateTransform attributeName="transform" type="scale" values="0.82;1" begin="0.45s" dur="0.6s" fill="freeze" calcMode="spline" keyTimes="0;1" keySplines="0.2 0.8 0.2 1"/><animate attributeName="opacity" values="0;1" begin="0.45s" dur="0.6s" fill="freeze"/></path>
    <path d="M 133.13 312.06 A 132 132 0 0 1 67.70 246.33 L 109.62 227.40 A 86 86 0 0 0 152.25 270.22 Z" class="slice" style="transform-origin:188 192;opacity:1" transform="scale(1)"><title>Fri: 542 contributions · 11.8% of the last 500 days</title><animateTransform attributeName="transform" type="scale" values="0.82;1" begin="0.55s" dur="0.6s" fill="freeze" calcMode="spline" keyTimes="0;1" keySplines="0.2 0.8 0.2 1"/><animate attributeName="opacity" values="0;1" begin="0.55s" dur="0.6s" fill="freeze"/></path>
    <path d="M 66.37 243.29 A 132 132 0 0 1 72.24 128.58 L 112.58 150.68 A 86 86 0 0 0 108.76 225.42 Z" class="slice" style="transform-origin:188 192;opacity:1" transform="scale(1)"><title>Sat: 675 contributions · 14.7% of the last 500 days</title><animateTransform attributeName="transform" type="scale" values="0.82;1" begin="0.65s" dur="0.6s" fill="freeze" calcMode="spline" keyTimes="0;1" keySplines="0.2 0.8 0.2 1"/><animate attributeName="opacity" values="0;1" begin="0.65s" dur="0.6s" fill="freeze"/></path>
    <path d="M 73.87 125.69 A 132 132 0 0 1 186.34 60.01 L 186.92 106.01 A 86 86 0 0 0 113.64 148.80 Z" class="slice slice-peak" style="transform-origin:188 192;opacity:1" transform="scale(1)"><title>Sun: 771 contributions · 16.8% of the last 500 days</title><animate attributeName="opacity" values="1;0.68;1" dur="2.6s" begin="1.3s" repeatCount="indefinite"/><animateTransform attributeName="transform" type="scale" values="0.82;1" begin="0.75s" dur="0.6s" fill="freeze" calcMode="spline" keyTimes="0;1" keySplines="0.2 0.8 0.2 1"/></path>
    <text x="237.99" y="99.14" text-anchor="middle" class="slice-label">Mon</text>
    <text x="296.35" y="184.11" text-anchor="middle" class="slice-label">Tue</text>
    <text x="263.16" y="274.94" text-anchor="middle" class="slice-label">Wed</text>
    <text x="184.41" y="304.94" text-anchor="middle" class="slice-label">Thu</text>
    <text x="110.75" y="272.90" text-anchor="middle" class="slice-label">Fri</text>
    <text x="79.14" y="190.44" text-anchor="middle" class="slice-label">Sat</text>
    <text x="133.04" y="101.87" text-anchor="middle" class="slice-label">Sun</text>
    <text x="188" y="178" text-anchor="middle" class="center-num">4583</text>
    <text x="188" y="200" text-anchor="middle" class="center-sub">500 days</text>
    <text x="188" y="232" text-anchor="middle" class="center-streak">18-day streak</text>
  </g>
  <g class="legend">
    <rect x="388" y="111" width="12" height="12" rx="2" class="legend-swatch"/>
      <text x="410" y="120" class="legend-label">Mon</text>
      <text x="584" y="120" text-anchor="end" class="legend-label">15.2%</text>
    <rect x="388" y="135" width="12" height="12" rx="2" class="legend-swatch"/>
      <text x="410" y="144" class="legend-label">Tue</text>
      <text x="584" y="144" text-anchor="end" class="legend-label">16.2%</text>
    <rect x="388" y="159" width="12" height="12" rx="2" class="legend-swatch"/>
      <text x="410" y="168" class="legend-label">Wed</text>
      <text x="584" y="168" text-anchor="end" class="legend-label">13.1%</text>
    <rect x="388" y="183" width="12" height="12" rx="2" class="legend-swatch"/>
      <text x="410" y="192" class="legend-label">Thu</text>
      <text x="584" y="192" text-anchor="end" class="legend-label">12.2%</text>
    <rect x="388" y="207" width="12" height="12" rx="2" class="legend-swatch"/>
      <text x="410" y="216" class="legend-label">Fri</text>
      <text x="584" y="216" text-anchor="end" class="legend-label">11.8%</text>
    <rect x="388" y="231" width="12" height="12" rx="2" class="legend-swatch"/>
      <text x="410" y="240" class="legend-label">Sat</text>
      <text x="584" y="240" text-anchor="end" class="legend-label">14.7%</text>
    <rect x="388" y="255" width="12" height="12" rx="2" class="legend-swatch swatch-peak"/>
      <text x="410" y="264" class="legend-label legend-peak">Sun</text>
      <text x="584" y="264" text-anchor="end" class="legend-label legend-peak">16.8%</text>
  </g>
  
</svg>