<?xml version="1.0" encoding="UTF-8"?>
<svg width="36px" height="36px" viewBox="0 0 36 36" xmlns="http://www.w3.org/2000/svg" xmlns:xlink="http://www.w3.org/1999/xlink" version="1.1">
 <!-- Generated by Pixelmator Pro 2.3 -->
 <path id="Path" d="M0 6.207 C0 2.779 2.779 0 6.207 0 L29.793 0 C31.439 0 33.018 0.654 34.182 1.818 35.346 2.982 36 4.561 36 6.207 L36 26.267 C36 29.813 31.512 31.352 29.336 28.553 L22.531 19.799 22.531 30.414 C22.531 31.896 21.942 33.316 20.895 34.364 19.847 35.411 18.427 36 16.945 36 L6.207 36 C4.561 36 2.982 35.346 1.818 34.182 0.654 33.018 -0 31.439 0 29.793 Z M6.207 4.966 C5.521 4.966 4.966 5.521 4.966 6.206 L4.966 29.793 C4.966 30.479 5.521 31.035 6.206 31.035 L17.131 31.035 C17.474 31.035 17.565 30.757 17.565 30.414 L17.565 16.18 C17.565 12.633 22.053 11.094 24.23 13.894 L31.035 22.647 31.035 6.207 C31.035 5.521 31.099 4.966 30.414 4.966 Z" fill="#12fff7" fill-opacity="1" stroke="none"/>
 <defs>
  <linearGradient id="linear-gradient" gradientUnits="userSpaceOnUse" x1="36" y1="36" x2="4.345" y2="0">
   <stop offset="0" stop-color="#b9ffb3" stop-opacity="1"/>
   <stop offset="1" stop-color="#b9ffb3" stop-opacity="0"/>
  </linearGradient>
 </defs>
 <path id="Path-1" d="M0 6.207 C0 2.779 2.779 0 6.207 0 L29.793 0 C31.439 0 33.018 0.654 34.182 1.818 35.346 2.982 36 4.561 36 6.207 L36 26.267 C36 29.813 31.512 31.352 29.336 28.553 L22.531 19.799 22.531 30.414 C22.531 31.896 21.942 33.316 20.895 34.364 19.847 35.411 18.427 36 16.945 36 L6.207 36 C4.561 36 2.982 35.346 1.818 34.182 0.654 33.018 -0 31.439 0 29.793 Z M6.207 4.966 C5.521 4.966 4.966 5.521 4.966 6.206 L4.966 29.793 C4.966 30.479 5.521 31.035 6.206 31.035 L17.131 31.035 C17.474 31.035 17.565 30.757 17.565 30.414 L17.565 16.18 C17.565 12.633 22.053 11.094 24.23 13.894 L31.035 22.647 31.035 6.207 C31.035 5.521 31.099 4.966 30.414 4.966 Z" fill-opacity="1" fill="url(#linear-gradient)" stroke="none"/>
 <defs>
  <linearGradient id="linear-gradient-1" gradientUnits="userSpaceOnUse" x1="36" y1="36" x2="14.617" y2="27.683">
   <stop offset="0" stop-color="#1a1a1a" stop-opacity="0.9"/>
   <stop offset="1" stop-color="#1a1a1a" stop-opacity="0"/>
  </linearGradient>
 </defs>
 <path id="Path-2" d="M0 6.207 C0 2.779 2.779 0 6.207 0 L29.793 0 C31.439 0 33.018 0.654 34.182 1.818 35.346 2.982 36 4.561 36 6.207 L36 26.267 C36 29.813 31.512 31.352 29.336 28.553 L22.531 19.799 22.531 30.414 C22.531 31.896 21.942 33.316 20.895 34.364 19.847 35.411 18.427 36 16.945 36 L6.207 36 C4.561 36 2.982 35.346 1.818 34.182 0.654 33.018 -0 31.439 0 29.793 Z M6.207 4.966 C5.521 4.966 4.966 5.521 4.966 6.206 L4.966 29.793 C4.966 30.479 5.521 31.035 6.206 31.035 L17.131 31.035 C17.474 31.035 17.565 30.757 17.565 30.414 L17.565 16.18 C17.565 12.633 22.053 11.094 24.23 13.894 L31.035 22.647 31.035 6.207 C31.035 5.521 31.099 4.966 30.414 4.966 Z" fill-opacity="1" fill="url(#linear-gradient-1)" stroke="none"/>
 <path id="Path-3" d="M29.793 0 C31.439 0 33.018 0.654 34.182 1.818 35.346 2.982 36 4.561 36 6.207 L36 26.267 C36 29.813 31.512 31.352 29.336 28.553 L22.531 19.799 22.531 30.414 C22.531 31.896 21.942 33.316 20.895 34.364 19.847 35.411 18.427 36 16.945 36 17.287 36 17.565 35.722 17.565 35.38 L17.565 16.18 C17.565 12.633 22.053 11.094 24.23 13.894 L31.035 22.647 31.035 1.241 C31.035 0.556 30.479 0 29.793 0 Z" fill="#b9ffb3" fill-opacity="1" stroke="none"/>
</svg>
