<?xml version="1.0" encoding="UTF-8" standalone="no"?>
<!DOCTYPE svg PUBLIC "-//W3C//DTD SVG 1.1//EN" "http://www.w3.org/Graphics/SVG/1.1/DTD/svg11.dtd">
<svg width="100%" height="100%" viewBox="0 0 442 385" version="1.1" xmlns="http://www.w3.org/2000/svg" xmlns:xlink="http://www.w3.org/1999/xlink" xml:space="preserve" xmlns:serif="http://www.serif.com/" style="fill-rule:evenodd;clip-rule:evenodd;stroke-linejoin:round;stroke-miterlimit:2;">
    <g id="print-logo" transform="matrix(1,0,0,1,-106.066,764.432)">
        <path id="path4861" d="M247.523,-568.202L345.28,-398.862L300.355,-398.44L274.256,-443.935L247.971,-398.683L225.649,-398.692L214.216,-418.444L251.664,-482.836L225.081,-529.096L247.523,-568.202Z" style="fill:rgb(82,119,195);"/>
        <path id="use4863" d="M282.807,-637.955L185.033,-468.624L162.206,-507.32L188.556,-552.67L136.224,-552.808L125.071,-572.143L136.46,-591.92L210.949,-591.685L237.72,-637.837L282.807,-637.955Z" style="fill:rgb(126,186,228);"/>
        <path id="use4865" d="M290.308,-502.594L485.84,-502.585L463.742,-463.467L411.292,-463.613L437.339,-418.223L426.171,-398.896L403.349,-398.871L366.308,-463.498L312.953,-463.606L290.308,-502.594Z" style="fill:rgb(126,186,228);"/>
        <path id="use4867" d="M404.115,-576.791L306.357,-746.131L351.283,-746.552L377.382,-701.057L403.667,-746.309L425.989,-746.3L437.421,-726.549L399.973,-662.157L426.557,-615.896L404.115,-576.791Z" style="fill:rgb(126,186,228);"/>
        <path id="path4873" d="M247.523,-568.202L345.28,-398.862L300.355,-398.44L274.256,-443.935L247.971,-398.683L225.649,-398.692L214.216,-418.444L251.664,-482.836L225.081,-529.096L247.523,-568.202Z" style="fill:rgb(82,119,195);"/>
        <path id="use4875" d="M361.069,-642.826L165.538,-642.836L187.635,-681.953L240.085,-681.808L214.038,-727.197L225.207,-746.524L248.029,-746.55L285.07,-681.922L338.424,-681.814L361.069,-642.826Z" style="fill:rgb(82,119,195);"/>
        <path id="use4877" d="M368.697,-507.074L466.471,-676.404L489.299,-637.708L462.949,-592.358L515.281,-592.221L526.434,-572.885L515.045,-553.108L440.555,-553.343L413.784,-507.191L368.697,-507.074Z" style="fill:rgb(82,119,195);"/>
    </g>
    <g id="gradient-logo" transform="matrix(1,0,0,1,-106.066,764.432)">
        <path id="path3336-6" d="M247.639,-568.311L345.397,-398.97L300.471,-398.549L274.372,-444.044L248.087,-398.792L225.765,-398.801L214.332,-418.553L251.781,-482.945L225.197,-529.205L247.639,-568.311Z" style="fill:url(#_Linear1);"/>
        <g id="use3439-6" transform="matrix(0.5,0.866025,-0.866025,0.5,-333.067,-568.37)">
            <path d="M247.639,-568.311L345.397,-398.97L300.471,-398.549L274.372,-444.044L248.087,-398.792L225.765,-398.801L214.332,-418.553L251.781,-482.945L225.197,-529.205L247.639,-568.311Z" style="fill:url(#_Linear2);"/>
        </g>
        <g id="use3445-0" transform="matrix(0.5,-0.866025,0.866025,0.5,658.776,-4.08618)">
            <path d="M247.639,-568.311L345.397,-398.97L300.471,-398.549L274.372,-444.044L248.087,-398.792L225.765,-398.801L214.332,-418.553L251.781,-482.945L225.197,-529.205L247.639,-568.311Z" style="fill:url(#_Linear3);"/>
        </g>
        <g id="use3449-5" transform="matrix(-1,-7.65714e-16,7.65714e-16,-1,651.87,-1145.21)">
            <path d="M247.639,-568.311L345.397,-398.97L300.471,-398.549L274.372,-444.044L248.087,-398.792L225.765,-398.801L214.332,-418.553L251.781,-482.945L225.197,-529.205L247.639,-568.311Z" style="fill:url(#_Linear4);"/>
        </g>
        <path id="path4260-0" d="M247.639,-568.311L345.397,-398.97L300.471,-398.549L274.372,-444.044L248.087,-398.792L225.765,-398.801L214.332,-418.553L251.781,-482.945L225.197,-529.205L247.639,-568.311Z" style="fill:url(#_Linear5);"/>
        <g id="use4354-5" transform="matrix(-0.5,0.866025,-0.866025,-0.5,-7.31026,-1141.51)">
            <path d="M247.639,-568.311L345.397,-398.97L300.471,-398.549L274.372,-444.044L248.087,-398.792L225.765,-398.801L214.332,-418.553L251.781,-482.945L225.197,-529.205L247.639,-568.311Z" style="fill:url(#_Linear6);"/>
        </g>
        <g id="use4362-2" transform="matrix(-0.5,-0.866025,0.866025,-0.5,984.715,-576.866)">
            <path d="M247.639,-568.311L345.397,-398.97L300.471,-398.549L274.372,-444.044L248.087,-398.792L225.765,-398.801L214.332,-418.553L251.781,-482.945L225.197,-529.205L247.639,-568.311Z" style="fill:url(#_Linear7);"/>
        </g>
    </g>
    <g id="text-vegur">
    </g>
    <defs>
        <linearGradient id="_Linear1" x1="0" y1="0" x2="1" y2="0" gradientUnits="userSpaceOnUse" gradientTransform="matrix(71.5923,123.822,-123.822,71.5923,216.998,-562.992)"><stop offset="0" style="stop-color:rgb(105,154,215);stop-opacity:1"/><stop offset="0.24" style="stop-color:rgb(126,177,221);stop-opacity:1"/><stop offset="1" style="stop-color:rgb(126,186,228);stop-opacity:1"/></linearGradient>
        <linearGradient id="_Linear2" x1="0" y1="0" x2="1" y2="0" gradientUnits="userSpaceOnUse" gradientTransform="matrix(71.5923,123.822,-123.822,71.5923,216.998,-562.992)"><stop offset="0" style="stop-color:rgb(105,154,215);stop-opacity:1"/><stop offset="0.24" style="stop-color:rgb(126,177,221);stop-opacity:1"/><stop offset="1" style="stop-color:rgb(126,186,228);stop-opacity:1"/></linearGradient>
        <linearGradient id="_Linear3" x1="0" y1="0" x2="1" y2="0" gradientUnits="userSpaceOnUse" gradientTransform="matrix(71.5923,123.822,-123.822,71.5923,216.998,-562.992)"><stop offset="0" style="stop-color:rgb(105,154,215);stop-opacity:1"/><stop offset="0.24" style="stop-color:rgb(126,177,221);stop-opacity:1"/><stop offset="1" style="stop-color:rgb(126,186,228);stop-opacity:1"/></linearGradient>
        <linearGradient id="_Linear4" x1="0" y1="0" x2="1" y2="0" gradientUnits="userSpaceOnUse" gradientTransform="matrix(71.5923,123.822,-123.822,71.5923,216.998,-562.992)"><stop offset="0" style="stop-color:rgb(105,154,215);stop-opacity:1"/><stop offset="0.24" style="stop-color:rgb(126,177,221);stop-opacity:1"/><stop offset="1" style="stop-color:rgb(126,186,228);stop-opacity:1"/></linearGradient>
        <linearGradient id="_Linear5" x1="0" y1="0" x2="1" y2="0" gradientUnits="userSpaceOnUse" gradientTransform="matrix(70.3218,124.303,-124.303,70.3218,224.397,-567.204)"><stop offset="0" style="stop-color:rgb(65,94,154);stop-opacity:1"/><stop offset="0.23" style="stop-color:rgb(74,107,175);stop-opacity:1"/><stop offset="1" style="stop-color:rgb(82,119,195);stop-opacity:1"/></linearGradient>
        <linearGradient id="_Linear6" x1="0" y1="0" x2="1" y2="0" gradientUnits="userSpaceOnUse" gradientTransform="matrix(70.3218,124.303,-124.303,70.3218,224.397,-567.204)"><stop offset="0" style="stop-color:rgb(65,94,154);stop-opacity:1"/><stop offset="0.23" style="stop-color:rgb(74,107,175);stop-opacity:1"/><stop offset="1" style="stop-color:rgb(82,119,195);stop-opacity:1"/></linearGradient>
        <linearGradient id="_Linear7" x1="0" y1="0" x2="1" y2="0" gradientUnits="userSpaceOnUse" gradientTransform="matrix(70.3218,124.303,-124.303,70.3218,224.397,-567.204)"><stop offset="0" style="stop-color:rgb(65,94,154);stop-opacity:1"/><stop offset="0.23" style="stop-color:rgb(74,107,175);stop-opacity:1"/><stop offset="1" style="stop-color:rgb(82,119,195);stop-opacity:1"/></linearGradient>
    </defs>
</svg>
